/* XPM */
static char * close_pressed_xpm[] = {
"38 38 2 1",
" 	c #000000",
".	c #51401B",
"  ....................................",
"  ....................................",
"  ....................................",
"  ....................................",
"  ....................................",
"  ....................................",
"  ....................................",
"  ....................................",
"  ....................................",
"  ....................................",
"  ....................................",
"  ....................................",
"  ....................................",
"  ....................................",
"  ....................................",
"  ....................................",
"  ....................................",
"  ...........              ...........",
"  ...........              ...........",
"  ...........              ...........",
"  ...........              ...........",
"  ....................................",
"  ....................................",
"  ....................................",
"  ....................................",
"  ....................................",
"  ....................................",
"  ....................................",
"  ....................................",
"  ....................................",
"  ....................................",
"  ....................................",
"  ....................................",
"  ....................................",
"  ....................................",
"  ....................................",
"  ....................................",
"  ...................................."};
