/* XPM */
static char * rhalf_idle_xpm[] = {
"38 38 2 1",
" 	c #000000",
".	c #AB8124",
"  ....................................",
"  ....................................",
"  ....................................",
"  ....................................",
"  ....................................",
"  ....................................",
"  ....................................",
"  ....................................",
"  ....................................",
"  ....................................",
"  ....................................",
"  ....................................",
"  ....................................",
"  ............... ....................",
"  ...............  ...................",
"  ...............   ..................",
"  ...............    .................",
"  ...............     ................",
"  ...............      ...............",
"  ...............      ...............",
"  ...............     ................",
"  ...............    .................",
"  ...............   ..................",
"  ...............  ...................",
"  ............... ....................",
"  ....................................",
"  ....................................",
"  ....................................",
"  ....................................",
"  ....................................",
"  ....................................",
"  ....................................",
"  ....................................",
"  ....................................",
"  ....................................",
"  ....................................",
"  ....................................",
"  ...................................."};
